<?xml version="1.0" encoding="UTF-8" standalone="no"?>
<!-- Created with Inkscape (http://www.inkscape.org/) -->

<svg
   xmlns:dc="http://purl.org/dc/elements/1.1/"
   xmlns:cc="http://creativecommons.org/ns#"
   xmlns:rdf="http://www.w3.org/1999/02/22-rdf-syntax-ns#"
   xmlns:svg="http://www.w3.org/2000/svg"
   xmlns="http://www.w3.org/2000/svg"
   xmlns:sodipodi="http://sodipodi.sourceforge.net/DTD/sodipodi-0.dtd"
   xmlns:inkscape="http://www.inkscape.org/namespaces/inkscape"
   width="744.09448819"
   height="1052.3622047"
   id="svg2"
   version="1.1"
   inkscape:version="0.48.3.1 r9886"
   sodipodi:docname="initial-design.png">
  <defs
     id="defs4" />
  <sodipodi:namedview
     id="base"
     pagecolor="#ffffff"
     bordercolor="#666666"
     borderopacity="1.0"
     inkscape:pageopacity="0.0"
     inkscape:pageshadow="2"
     inkscape:zoom="0.54"
     inkscape:cx="30.555556"
     inkscape:cy="294.58049"
     inkscape:document-units="px"
     inkscape:current-layer="layer1"
     showgrid="false"
     inkscape:window-width="1366"
     inkscape:window-height="718"
     inkscape:window-x="0"
     inkscape:window-y="0"
     inkscape:window-maximized="1" />
  <metadata
     id="metadata7">
    <rdf:RDF>
      <cc:Work
         rdf:about="">
        <dc:format>image/svg+xml</dc:format>
        <dc:type
           rdf:resource="http://purl.org/dc/dcmitype/StillImage" />
        <dc:title></dc:title>
      </cc:Work>
    </rdf:RDF>
  </metadata>
  <g
     inkscape:label="Layer 1"
     inkscape:groupmode="layer"
     id="layer1">
    <path
       sodipodi:type="arc"
       style="fill:none;stroke:#000000;stroke-width:3;stroke-miterlimit:4;stroke-dasharray:none"
       id="path3005"
       sodipodi:cx="143.51852"
       sodipodi:cy="318.10294"
       sodipodi:rx="17.592592"
       sodipodi:ry="56.48148"
       d="m 161.11112,318.10294 a 17.592592,56.48148 0 1 1 -35.18519,0 17.592592,56.48148 0 1 1 35.18519,0 z"
       transform="translate(-84.814815,-151.92593)" />
    <path
       sodipodi:type="arc"
       style="fill:none;stroke:#000000;stroke-width:3;stroke-miterlimit:4;stroke-dasharray:none"
       id="path3005-1"
       sodipodi:cx="143.51852"
       sodipodi:cy="318.10294"
       sodipodi:rx="17.592592"
       sodipodi:ry="56.48148"
       d="m 161.11112,318.10294 a 17.592592,56.48148 0 1 1 -35.18519,0 17.592592,56.48148 0 1 1 35.18519,0 z"
       transform="translate(160.55555,-152.85186)" />
    <path
       sodipodi:type="arc"
       style="fill:none;stroke:#000000;stroke-width:3;stroke-miterlimit:4;stroke-dasharray:none"
       id="path3005-9"
       sodipodi:cx="143.51852"
       sodipodi:cy="318.10294"
       sodipodi:rx="17.592592"
       sodipodi:ry="56.48148"
       d="m 161.11112,318.10294 a 17.592592,56.48148 0 1 1 -35.18519,0 17.592592,56.48148 0 1 1 35.18519,0 z"
       transform="translate(160.25925,15.8148)" />
    <path
       sodipodi:type="arc"
       style="fill:none;stroke:#000000;stroke-width:3;stroke-miterlimit:4;stroke-dasharray:none"
       id="path3005-6"
       sodipodi:cx="143.51852"
       sodipodi:cy="318.10294"
       sodipodi:rx="17.592592"
       sodipodi:ry="56.48148"
       d="m 161.11112,318.10294 a 17.592592,56.48148 0 1 1 -35.18519,0 17.592592,56.48148 0 1 1 35.18519,0 z"
       transform="translate(-85.592594,17.22221)" />
    <path
       style="fill:#ffffff;stroke:#000000;stroke-width:3;stroke-miterlimit:4;stroke-dasharray:none"
       d="m 188.18519,549.54737 0,-9.25926 210.18518,0 210.18519,0 0,9.25926 0,9.25926 -210.18519,0 -210.18518,0 0,-9.25926 z"
       id="path3071"
       inkscape:connector-curvature="0" />
    <path
       sodipodi:type="arc"
       style="fill:none;stroke:#000000;stroke-width:3.12515783;stroke-miterlimit:4;stroke-dasharray:none"
       id="path3043-9"
       sodipodi:cx="204.62962"
       sodipodi:cy="738.47327"
       sodipodi:rx="63.888889"
       sodipodi:ry="67.59259"
       d="m 268.51851,738.47327 a 63.888889,67.59259 0 1 1 -127.77778,0 63.888889,67.59259 0 1 1 127.77778,0 z"
       transform="matrix(1,0,0,0.92150685,361.88889,-115.10895)" />
    <path
       sodipodi:type="arc"
       style="fill:none;stroke:#000000;stroke-width:3.18766117;stroke-miterlimit:4;stroke-dasharray:none"
       id="path3043"
       sodipodi:cx="204.62962"
       sodipodi:cy="738.47327"
       sodipodi:rx="63.888889"
       sodipodi:ry="67.59259"
       d="m 268.51851,738.47327 a 63.888889,67.59259 0 1 1 -127.77778,0 63.888889,67.59259 0 1 1 127.77778,0 z"
       transform="matrix(1,0,0,0.92150685,12,-119.34046)" />
    <path
       style="fill:#ffffff;stroke:#000000;stroke-width:3;stroke-miterlimit:4;stroke-opacity:1;stroke-dasharray:none"
       d="m 75.88889,245.80662 0,-119.44444 105.55556,0 105.55555,0 0,119.44444 0,119.44445 -105.55555,0 -105.55556,0 0,-119.44445 z"
       id="path2999"
       inkscape:connector-curvature="0" />
    <text
       xml:space="preserve"
       style="font-size:40px;font-style:normal;font-weight:normal;line-height:125%;letter-spacing:0px;word-spacing:0px;fill:#000000;fill-opacity:1;stroke:none;font-family:Sans"
       x="138.88889"
       y="53.843662"
       id="text3841"
       sodipodi:linespacing="125%"><tspan
         sodipodi:role="line"
         id="tspan3843"
         x="138.88889"
         y="53.843662">Top</tspan></text>
    <text
       xml:space="preserve"
       style="font-size:40px;font-style:normal;font-weight:normal;line-height:125%;letter-spacing:0px;word-spacing:0px;fill:#000000;fill-opacity:1;stroke:none;font-family:Sans"
       x="342.2963"
       y="463.76959"
       id="text3845"
       sodipodi:linespacing="125%"><tspan
         sodipodi:role="line"
         x="342.2963"
         y="463.76959"
         id="tspan3849">Side</tspan></text>
    <text
       xml:space="preserve"
       style="font-size:40px;font-style:normal;font-weight:normal;line-height:125%;letter-spacing:0px;word-spacing:0px;fill:#000000;fill-opacity:1;stroke:none;font-family:Sans"
       x="503.7037"
       y="54.065868"
       id="text3853"
       sodipodi:linespacing="125%"><tspan
         sodipodi:role="line"
         x="503.7037"
         y="54.065868"
         id="tspan3857">Front</tspan></text>
    <path
       sodipodi:type="arc"
       style="fill:none;stroke:#000000;stroke-width:3;stroke-miterlimit:4;stroke-dasharray:none"
       id="path3005-8"
       sodipodi:cx="143.51852"
       sodipodi:cy="318.10294"
       sodipodi:rx="17.592592"
       sodipodi:ry="56.48148"
       d="m 161.11112,318.10294 a 17.592592,56.48148 0 1 1 -35.18519,0 17.592592,56.48148 0 1 1 35.18519,0 z"
       transform="translate(293.05555,-80.50001)" />
    <path
       sodipodi:type="arc"
       style="fill:none;stroke:#000000;stroke-width:3;stroke-miterlimit:4;stroke-dasharray:none"
       id="path3005-1-8"
       sodipodi:cx="143.51852"
       sodipodi:cy="318.10294"
       sodipodi:rx="17.592592"
       sodipodi:ry="56.48148"
       d="m 161.11112,318.10294 a 17.592592,56.48148 0 1 1 -35.18519,0 17.592592,56.48148 0 1 1 35.18519,0 z"
       transform="translate(538.42591,-81.42594)" />
    <path
       style="fill:#ffffff;stroke:#000000;stroke-width:3;stroke-miterlimit:4;stroke-opacity:1;stroke-dasharray:none"
       d="m 453.75925,223.9128 0,-8.12469 105.55556,0 105.55555,0 0,8.12469 0,8.1247 -105.55555,0 -105.55556,0 0,-8.1247 z"
       id="path2999-9"
       inkscape:connector-curvature="0" />
  </g>
</svg>
